<?xml version="1.0" encoding="UTF-8" standalone="no"?>
<svg
   id="Layer_1"
   data-name="Layer 1"
   version="1.1"
   viewBox="0 0 1000 1000"
   sodipodi:docname="0Z-black.svg"
   inkscape:export-filename="0Z-pink-png-2k02.png"
   inkscape:export-xdpi="96"
   inkscape:export-ydpi="96"
   width="1000"
   height="1000"
   xmlns:inkscape="http://www.inkscape.org/namespaces/inkscape"
   xmlns:sodipodi="http://sodipodi.sourceforge.net/DTD/sodipodi-0.dtd"
   xmlns="http://www.w3.org/2000/svg"
   xmlns:svg="http://www.w3.org/2000/svg">
  <sodipodi:namedview
     id="namedview9"
     pagecolor="#ffffff"
     bordercolor="#000000"
     borderopacity="0.25"
     inkscape:showpageshadow="2"
     inkscape:pageopacity="0.0"
     inkscape:pagecheckerboard="0"
     inkscape:deskcolor="#d1d1d1"
     showguides="true">
    <sodipodi:guide
       position="498.28366,498.06291"
       orientation="0,-1"
       id="guide10"
       inkscape:locked="false" />
    <sodipodi:guide
       position="498.28366,498.06291"
       orientation="1,0"
       id="guide11"
       inkscape:locked="false" />
  </sodipodi:namedview>
  <defs
     id="defs1">
    <style
       id="style1">
      .cls-1 {
        fill: #231f20;
        stroke-width: 0px;
      }
    </style>
  </defs>
  <path
     class="cls-1"
     d="m 611.39416,417.13795 -3.76018,4.29915 c 2.28433,20.03298 3.50351,40.46381 3.50351,61.35662 0,25.46154 -1.74536,50.92302 -5.22323,76.3845 -0.37214,2.72072 -0.78284,5.4029 -1.21912,8.05943 h 80.33714 c 4.08103,-27.38651 6.14725,-55.55587 6.14725,-84.55941 0,-37.84577 -3.47787,-74.38252 -10.44641,-109.6231 -1.386,-7.00703 -2.99018,-13.80879 -4.7099,-20.48217 l -60.24002,59.52143 -4.40189,5.04355 z"
     id="path1"
     style="fill:#ebaab0;fill-opacity:1"
     inkscape:export-filename="01.png"
     inkscape:export-xdpi="96"
     inkscape:export-ydpi="96" />
  <path
     class="cls-1"
     d="m 441.19728,282.34853 h 12.57676 c 12.94891,-7.40493 27.63038,-11.12661 44.05716,-11.12661 17.29941,0 32.17335,3.74738 44.68592,11.12661 h 105.92712 c -0.46199,-0.80854 -0.88548,-1.65552 -1.34746,-2.46406 -15.46432,-26.86034 -35.5101,-48.45901 -60.1375,-64.7831 -24.62734,-16.3113 -54.33674,-24.48617 -89.14087,-24.48617 -34.8043,0 -64.51369,8.16202 -89.14104,24.48617 -24.62729,16.32409 -44.53194,37.90991 -59.75244,64.7831 -0.46199,0.80854 -0.87263,1.65552 -1.32182,2.46406 h 93.56852 z"
     id="path2"
     style="fill:#ebaab0;fill-opacity:1" />
  <path
     class="cls-1"
     d="m 546.00784,683.8678 h -2.96454 c -12.6666,7.39208 -27.72017,11.13941 -45.2121,11.13941 -17.49198,0 -33.07173,-3.76018 -45.52016,-11.13941 H 347.0128 c 0.33365,0.60316 0.62881,1.21918 0.97536,1.82234 15.33593,27.29668 35.31752,49.11354 59.94486,65.42484 24.61456,16.3112 54.58061,24.4733 89.91103,24.4733 35.33037,0 65.28358,-8.1621 89.91092,-24.4733 24.6145,-16.3113 44.532,-38.12816 59.75245,-65.42484 0.33365,-0.59031 0.62886,-1.21918 0.96251,-1.82234 H 546.02064 Z"
     id="path3"
     style="fill:#ebaab0;fill-opacity:1" />
  <path
     class="cls-1"
     d="m 652.76909,675.69292 c 1.02671,-2.02767 1.97638,-4.11953 2.96454,-6.18575 -0.98816,2.07906 -1.96348,4.14523 -2.99019,6.18575 z"
     id="path4"
     style="fill:#ebaab0;fill-opacity:1" />
  <path
     class="cls-1"
     d="m 680.74592,592.08317 c 1.0909,-5.51839 2.07907,-11.10091 3.00304,-16.6835 v 0 c -0.92397,5.59538 -1.88649,11.16511 -2.99019,16.6835 z"
     id="path5"
     style="fill:#ebaab0;fill-opacity:1" />
  <path
     class="cls-1"
     d="m 384.69174,554.26305 3.46502,-3.88851 c -2.36138,-21.91947 -3.61905,-44.45496 -3.61905,-67.6963 0,-30.58207 2.07901,-58.03278 6.1729,-82.42911 h -80.19607 c -4.00405,26.7577 -6.01887,54.23406 -6.01887,82.42911 0,37.84577 3.41368,74.31833 10.24109,109.41773 1.89928,9.74055 4.15797,19.1475 6.69902,28.28484 l 2.00202,-2.09181 61.26673,-64.02595 z"
     id="path6"
     style="fill:#ebaab0;fill-opacity:1" />
  <path
     class="cls-1"
     d="m 442.76296,675.69292 c -21.08534,-19.36563 -22.50984,-52.5144 -3.29819,-74.16435 l 170.37655,-195.0424 64.92423,-64.15423 c -5.41571,-18.60848 -12.17897,-35.92079 -20.35379,-51.82139 h -99.11255 c 1.32187,1.15504 2.64368,2.31003 3.91421,3.52921 20.50781,19.64794 21.3035,52.21918 2.43836,73.44565 l -170.95402,192.30882 -65.46331,68.4022 c 5.15904,16.88877 11.47307,32.72517 18.95499,47.48364 h 98.57352 z"
     id="path7"
     style="fill:#ebaab0;fill-opacity:1" />
  <path
     class="cls-1"
     d="m 392.16081,392.07426 c 0,0 0,0 0,0 1.80944,-9.4069 3.93985,-18.33896 6.39101,-26.78335 0,0 0,-0.0128 0,-0.0256 0.80849,-2.79766 1.65552,-5.53118 2.541,-8.21336 0.0642,-0.20537 0.14118,-0.39785 0.20532,-0.60317 0.82139,-2.4897 1.66837,-4.92807 2.55385,-7.31509 0.20537,-0.53897 0.42354,-1.0523 0.62886,-1.59133 0.77005,-2.04052 1.55284,-4.05534 2.36138,-6.03171 0.43634,-1.05236 0.91117,-2.06617 1.36031,-3.09288 0.61601,-1.41165 1.21918,-2.849 1.86084,-4.23501 1.11655,-2.39982 2.27154,-4.74834 3.45223,-7.04553 1.10364,-2.13035 2.24583,-4.18372 3.41367,-6.18574 0.44919,-0.77 0.91118,-1.50149 1.36037,-2.25864 0.7058,-1.18069 1.4245,-2.33573 2.156,-3.47787 0.60316,-0.93687 1.21918,-1.86084 1.84799,-2.75922 0.57752,-0.83413 1.15499,-1.65547 1.73251,-2.4768 0.74435,-1.03951 1.50149,-2.07902 2.27154,-3.08003 0.38499,-0.50053 0.78284,-0.98821 1.18063,-1.47584 4.51743,-5.65957 9.35561,-10.63894 14.52745,-14.8868 h -98.75315 c -1.60418,3.15701 -3.14422,6.36537 -4.64571,9.63792 -0.64166,1.38601 -1.23203,2.82336 -1.86085,4.23501 -0.89837,2.04052 -1.7967,4.08104 -2.65653,6.16005 -0.64166,1.53999 -1.24483,3.11852 -1.86084,4.69705 -0.79569,2.01482 -1.57848,4.0297 -2.33573,6.08301 -0.59032,1.60418 -1.16779,3.22121 -1.73246,4.85103 -0.7315,2.10471 -1.463,4.22222 -2.156,6.36542 -0.52623,1.60418 -1.05236,3.22116 -1.55289,4.85103 -0.7058,2.27149 -1.38601,4.55587 -2.04052,6.86585 -0.44913,1.55284 -0.89832,3.10573 -1.33466,4.67136 -0.7058,2.59239 -1.37316,5.23608 -2.04052,7.87976 -0.33365,1.33466 -0.693,2.65648 -1.01381,4.00399 -0.96251,4.0169 -1.87369,8.09788 -2.72067,12.23026 -0.70585,3.41368 -1.34751,6.85306 -1.96358,10.30523 -0.52613,2.90035 -1.02666,5.8007 -1.51434,8.7139 h 80.32445 z"
     id="path8"
     style="fill:#ebaab0;fill-opacity:1" />
  <path
     class="cls-1"
     d="m 683.83879,574.77086 h -80.45267 c -0.0384,0.21817 -0.0898,0.41064 -0.12834,0.62881 -0.85988,4.58152 -1.7967,9.08605 -2.82336,13.47514 0,0.0256 0,0.0384 -0.0128,0.0641 -1.05236,4.50453 -2.20735,8.91922 -3.45223,13.21843 -0.0384,0.11553 -0.0641,0.23102 -0.0898,0.3337 -1.16778,4.04249 -2.43831,7.96955 -3.76018,11.83242 -0.24386,0.7058 -0.48768,1.3988 -0.74434,2.10466 -1.33467,3.77302 -2.73353,7.48186 -4.23502,11.08806 -2.09186,5.03071 -4.37619,9.81754 -6.8659,14.36062 -2.38702,4.38904 -4.97936,8.53422 -7.72573,12.47407 -0.10269,0.14119 -0.19253,0.29516 -0.29516,0.4364 -1.36036,1.93783 -2.77202,3.81147 -4.23501,5.63387 -0.0771,0.0898 -0.14119,0.19247 -0.21823,0.28231 -2.99013,3.74738 -6.17284,7.25095 -9.53523,10.5363 -0.077,0.077 -0.14113,0.15397 -0.21812,0.23096 -1.50154,1.463 -3.05438,2.84895 -4.62006,4.20932 -0.23102,0.20532 -0.44914,0.42354 -0.693,0.62886 h 98.70191 c 0.10263,-0.20532 0.20532,-0.42354 0.30801,-0.62886 1.02665,-2.04047 2.00202,-4.10668 2.99018,-6.18564 0.52618,-1.1165 1.06515,-2.2074 1.57848,-3.3239 0.94967,-2.07901 1.86085,-4.20937 2.77202,-6.32687 0.60317,-1.39891 1.20633,-2.78487 1.78385,-4.19658 0.82134,-2.01487 1.61703,-4.04254 2.41267,-6.0958 0.61596,-1.60423 1.23198,-3.2212 1.82235,-4.83823 0.71865,-1.93783 1.41165,-3.90131 2.09181,-5.86489 0.62886,-1.8223 1.23203,-3.65749 1.83519,-5.50549 0.60322,-1.86084 1.20634,-3.72174 1.78386,-5.60822 0.62881,-2.07902 1.23203,-4.18367 1.83514,-6.28839 0.48768,-1.73251 1.00107,-3.46502 1.46305,-5.22317 0.66736,-2.48971 1.29617,-5.03071 1.91219,-7.57176 0.3465,-1.43735 0.7315,-2.8618 1.0652,-4.312 0.93677,-4.04254 1.8223,-8.12358 2.64363,-12.26875 1.09085,-5.51839 2.06617,-11.10092 2.99024,-16.68345 0.0384,-0.20537 0.077,-0.42349 0.11549,-0.62886 z"
     id="path9"
     style="fill:#ebaab0;fill-opacity:1;stroke:none;stroke-width:1.02667;stroke-linecap:round;stroke-linejoin:round;stroke-dasharray:3.08002, 3.08002;stroke-dashoffset:0;stroke-opacity:1" />
</svg>
