<?xml version="1.0" encoding="UTF-8" standalone="no"?>
<svg
   id="Layer_1"
   data-name="Layer 1"
   version="1.1"
   viewBox="0 0 2000 2000"
   sodipodi:docname="0Z-black.svg"
   inkscape:export-filename="logo-dark.png"
   inkscape:export-xdpi="96"
   inkscape:export-ydpi="96"
   width="2000"
   height="2000"
   xmlns:inkscape="http://www.inkscape.org/namespaces/inkscape"
   xmlns:sodipodi="http://sodipodi.sourceforge.net/DTD/sodipodi-0.dtd"
   xmlns="http://www.w3.org/2000/svg"
   xmlns:svg="http://www.w3.org/2000/svg">
  <sodipodi:namedview
     id="namedview9"
     pagecolor="#ffffff"
     bordercolor="#000000"
     borderopacity="0.25"
     inkscape:showpageshadow="2"
     inkscape:pageopacity="0.0"
     inkscape:pagecheckerboard="0"
     inkscape:deskcolor="#d1d1d1"
     showguides="true">
    <sodipodi:guide
       position="999.02624,1000.3447"
       orientation="0,-1"
       id="guide10"
       inkscape:locked="false" />
    <sodipodi:guide
       position="999.02624,1000.3447"
       orientation="1,0"
       id="guide11"
       inkscape:locked="false" />
  </sodipodi:namedview>
  <defs
     id="defs1">
    <style
       id="style1">
      .cls-1 {
        fill: #231f20;
        stroke-width: 0px;
      }
    </style>
  </defs>
  <path
     class="cls-1"
     d="m 1285.458,830.9616 -9.6357,11.01685 c 5.854,51.33645 8.9783,103.69231 8.9783,157.23209 0,65.24766 -4.4727,130.49516 -13.3854,195.74266 -0.9535,6.9721 -2.006,13.8454 -3.1241,20.653 h 205.8717 c 10.458,-70.1805 15.7528,-142.3673 15.7528,-216.69164 0,-96.98319 -8.9125,-190.61219 -26.7699,-280.91956 -3.5518,-17.9561 -7.6627,-35.3861 -12.0696,-52.48732 l -154.3707,152.52921 -11.2802,12.92471 z"
     id="path1"
     style="fill:#ebaab0;fill-opacity:1"
     inkscape:export-filename="01.png"
     inkscape:export-xdpi="96"
     inkscape:export-ydpi="96" />
  <path
     class="cls-1"
     d="m 849.31271,485.55076 h 32.229 c 33.18269,-18.97576 70.8055,-28.51297 112.90069,-28.51297 44.3315,0 82.447,9.60307 114.512,28.51297 h 271.4482 c -1.1839,-2.07186 -2.2692,-4.24238 -3.4528,-6.31424 -39.6293,-68.83231 -90.998,-124.18077 -154.1083,-166.01282 -63.1101,-41.79925 -139.2432,-62.7482 -228.4319,-62.7482 -89.1893,0 -165.3224,20.91589 -228.4325,62.7482 -63.1098,41.83205 -114.1172,97.14771 -153.12117,166.01282 -1.18392,2.07186 -2.23612,4.24238 -3.38723,6.31424 h 239.7781 z"
     id="path2"
     style="fill:#ebaab0;fill-opacity:1" />
  <path
     class="cls-1"
     d="m 1117.8994,1514.4818 h -7.5968 c -32.4594,18.943 -71.0357,28.5461 -115.8602,28.5461 -44.8249,0 -84.7496,-9.6359 -116.6498,-28.5461 H 607.956 c 0.85488,1.5458 1.61136,3.1244 2.49929,4.6701 39.29997,69.9504 90.50472,125.858 153.61451,167.6573 63.0772,41.7989 139.8679,62.7151 230.4054,62.7151 90.5376,0 167.2955,-20.9162 230.4053,-62.7151 63.077,-41.7993 114.1175,-97.7069 153.1215,-167.6573 0.8548,-1.5127 1.6113,-3.1243 2.4665,-4.6701 h -262.5361 z"
     id="path3"
     style="fill:#ebaab0;fill-opacity:1" />
  <path
     class="cls-1"
     d="m 1391.4853,1493.5331 c 2.631,-5.1961 5.0645,-10.5568 7.5968,-15.8517 -2.5323,5.3279 -5.0316,10.6225 -7.6624,15.8517 z"
     id="path4"
     style="fill:#ebaab0;fill-opacity:1" />
  <path
     class="cls-1"
     d="m 1463.1785,1279.2751 c 2.7955,-14.1414 5.3279,-28.4471 7.6955,-42.753 v 0 c -2.3676,14.3387 -4.8344,28.6116 -7.6627,42.753 z"
     id="path5"
     style="fill:#ebaab0;fill-opacity:1" />
  <path
     class="cls-1"
     d="m 704.5117,1182.3575 8.87941,-9.9646 c -6.05101,-56.1708 -9.274,-113.9202 -9.274,-173.47834 0,-78.36927 5.32759,-148.71428 15.8186,-211.23237 H 514.42565 c -10.26062,68.56914 -15.42399,138.98001 -15.42399,211.23237 0,96.98334 8.74793,190.44784 26.24379,280.39334 4.86712,24.9612 10.65526,49.0673 17.16706,72.4828 l 5.13032,-5.3607 157.00167,-164.0725 z"
     id="path6"
     style="fill:#ebaab0;fill-opacity:1" />
  <path
     class="cls-1"
     d="m 853.3247,1493.5331 c -54.0331,-49.6264 -57.6835,-134.5731 -8.452,-190.0532 L 1281.479,803.66535 1447.8532,639.26389 c -13.8783,-47.68578 -31.2099,-92.05019 -52.1586,-132.79698 h -253.9851 c 3.3872,2.9598 6.7747,5.91959 10.0305,9.04391 52.5532,50.3496 54.5922,133.81638 6.2483,188.21129 L 719.90271,1196.5318 552.1468,1371.8189 c 13.22068,43.2789 29.4009,83.8611 48.57398,121.6812 h 252.60393 z"
     id="path7"
     style="fill:#f2949c;fill-opacity:1" />
  <path
     class="cls-1"
     d="m 723.652,766.7335 c 0,0 0,0 0,0 4.6368,-24.10608 10.0961,-46.99543 16.3776,-68.635 0,0 0,-0.0333 0,-0.0666 2.0718,-7.16911 4.2423,-14.17422 6.51151,-21.04736 0.16399,-0.52635 0.36179,-1.01965 0.5261,-1.54575 2.1049,-6.38009 4.2754,-12.62873 6.54459,-18.74564 0.52611,-1.38124 1.0853,-2.69662 1.6114,-4.07786 1.97341,-5.22923 3.9794,-10.39234 6.05131,-15.4568 1.11809,-2.69687 2.335,-5.29483 3.48589,-7.92585 1.57851,-3.61761 3.1243,-7.30083 4.76871,-10.85258 2.8612,-6.14997 5.82099,-12.16823 8.8466,-18.05502 2.8281,-5.4591 5.7551,-10.72113 8.7479,-15.85144 1.1509,-1.9732 2.3348,-3.84774 3.4859,-5.78788 1.8087,-3.02565 3.6505,-5.98571 5.525,-8.91245 1.5457,-2.40089 3.1243,-4.76873 4.7357,-7.07071 1.4799,-2.13771 2.9598,-4.24237 4.4397,-6.34703 1.9076,-2.66382 3.8477,-5.32789 5.8212,-7.89305 0.9866,-1.28258 2.006,-2.53235 3.0254,-3.78187 11.5762,-14.50326 23.9746,-27.26319 37.2278,-38.14884 H 598.32013 c -4.11092,8.09011 -8.05731,16.31194 -11.90505,24.69803 -1.64441,3.55176 -3.15711,7.23523 -4.76873,10.85259 -2.30197,5.22898 -4.60421,10.45821 -6.80753,15.78584 -1.64442,3.94639 -3.18992,7.99145 -4.76848,12.03651 -2.03905,5.16311 -4.04504,10.32648 -5.98571,15.58826 -1.5127,4.11091 -2.99259,8.25463 -4.43944,12.4314 -1.87453,5.39349 -3.74907,10.81979 -5.52495,16.31194 -1.34869,4.11091 -2.69687,8.25437 -3.97945,12.43115 -1.80868,5.82093 -3.55176,11.67492 -5.22898,17.59451 -1.15111,3.9792 -2.30223,7.95865 -3.42029,11.97065 -1.80868,6.64327 -3.51896,13.418 -5.22898,20.19274 -0.85513,3.42003 -1.77587,6.80753 -2.59795,10.26062 -2.4665,10.29369 -4.80154,20.75164 -6.97206,31.34105 -1.80893,8.74793 -3.45309,17.56172 -5.03191,26.4083 -1.34818,7.4323 -2.63076,14.86485 -3.88053,22.3302 h 205.83892 z"
     id="path8"
     style="fill:#f2949c;fill-opacity:1" />
  <path
     class="cls-1"
     d="m 1471.1043,1234.9107 h -206.1676 c -0.097,0.5592 -0.2306,1.0522 -0.3288,1.6114 -2.2036,11.7405 -4.6042,23.284 -7.2352,34.5314 0,0.067 0,0.097 -0.033,0.1641 -2.6969,11.5432 -5.6567,22.8562 -8.8466,33.8734 -0.097,0.2959 -0.164,0.5919 -0.2306,0.8551 -2.9926,10.3593 -6.2484,20.4226 -9.6359,30.3216 -0.625,1.8087 -1.2498,3.5846 -1.9076,5.3935 -3.4201,9.6687 -7.0049,19.1728 -10.8526,28.4141 -5.3604,12.8916 -11.2144,25.1585 -17.5945,36.8004 -6.1169,11.2475 -12.7599,21.8699 -19.7979,31.966 -0.2631,0.3619 -0.4933,0.7565 -0.7564,1.1184 -3.4859,4.9657 -7.1035,9.7673 -10.8526,14.4374 -0.1973,0.2306 -0.3619,0.4933 -0.5592,0.7234 -7.6624,9.603 -15.8184,18.5811 -24.4348,27.0002 -0.1974,0.1974 -0.3619,0.3947 -0.5592,0.592 -3.8477,3.7491 -7.8269,7.3006 -11.8392,10.7867 -0.5919,0.5261 -1.1511,1.0853 -1.7759,1.6114 h 252.933 c 0.2629,-0.5261 0.5261,-1.0853 0.7893,-1.6114 2.631,-5.2289 5.1303,-10.5238 7.6626,-15.8514 1.3485,-2.8611 2.7295,-5.6567 4.0451,-8.5178 2.4334,-5.3277 4.7685,-10.7867 7.1035,-16.213 1.5458,-3.5849 3.0913,-7.1366 4.5712,-10.7542 2.1049,-5.1634 4.1439,-10.3596 6.1827,-15.6211 1.5786,-4.1109 3.1572,-8.2546 4.6701,-12.3983 1.8415,-4.9661 3.6174,-9.9977 5.3605,-15.0294 1.6113,-4.6698 3.1571,-9.3727 4.7028,-14.1084 1.5458,-4.7687 3.0913,-9.5374 4.5712,-14.3715 1.6113,-5.3279 3.1571,-10.7211 4.7029,-16.1146 1.2495,-4.4397 2.5651,-8.8797 3.749,-13.385 1.7103,-6.3801 3.3217,-12.8916 4.9002,-19.4034 0.888,-3.6832 1.8746,-7.3337 2.7297,-11.0499 2.4006,-10.3593 4.6698,-20.8173 6.7745,-31.4397 2.7955,-14.1415 5.2948,-28.4471 7.6629,-42.7531 0.097,-0.5261 0.1973,-1.0852 0.296,-1.6113 z"
     id="path9"
     style="fill:#f2949c;fill-opacity:1;stroke:none;stroke-width:2.63094;stroke-linecap:round;stroke-linejoin:round;stroke-dasharray:7.89284, 7.89284;stroke-dashoffset:0;stroke-opacity:1" />
</svg>
